<svg t="1708970878913" class="icon" viewBox="0 0 1083 1024" version="1.1" xmlns="http://www.w3.org/2000/svg" p-id="19873" width="200" height="200"><path d="M861.184 126.464h54.272V72.192c0-17.92 12.288-30.208 30.208-30.208s24.064 17.92 24.064 30.208v54.272H1024c17.92 0 30.208 12.288 30.208 30.208s-12.288 24.064-30.208 24.064h-54.272v54.272c0 17.92-12.288 30.208-30.208 30.208s-30.208-12.288-30.208-30.208V180.736H855.04c-12.288 0-24.064-12.288-24.064-24.064s12.288-30.208 30.208-30.208zM680.448 487.936h36.352v-36.352c0-12.288 6.144-17.92 17.92-17.92 12.288 0 17.92 6.144 17.92 17.92v36.352h41.984c12.288 0 17.92 6.144 17.92 17.92s-6.144 17.92-17.92 17.92h-36.352v36.352c0 12.288-6.144 17.92-17.92 17.92-12.288 0-17.92-6.144-17.92-17.92v-36.352H686.08c-17.92 0-24.064-6.144-24.064-17.92s6.656-17.92 18.432-17.92z" fill="#6162D5" p-id="19874"></path><path d="M463.872 90.112c-36.352 66.56-60.416 138.752-60.416 217.088 0 241.152 198.656 439.808 439.808 439.808 30.208 0 66.048-6.144 96.256-12.288-72.192 162.816-235.008 276.992-421.888 276.992-252.928 0-463.872-204.8-463.872-463.872 0.512-234.496 181.248-427.52 410.112-457.728z" fill="#6162D5" p-id="19875"></path></svg>